<svg width="24" height="24" viewBox="0 0 24 24" fill="none" xmlns="http://www.w3.org/2000/svg">
<path fill-rule="evenodd" clip-rule="evenodd" d="M10.4908 12.3938H12.9169L11.6923 10.0289L10.4908 12.3938Z" fill="#CA60FF"/>
<path fill-rule="evenodd" clip-rule="evenodd" d="M19.1401 7.26335C18.9552 5.66875 17.669 4.42081 16.0824 4.24363C13.1942 3.92009 10.2058 3.92009 7.3176 4.23592C5.72331 4.4131 4.44479 5.66875 4.25994 7.26335C3.91335 10.2137 3.91335 13.1872 4.25994 16.1376C4.44479 17.7322 5.73101 18.9802 7.3176 19.1573C10.2058 19.4809 13.1942 19.4809 16.0824 19.1573C17.6767 18.9802 18.9552 17.7322 19.1401 16.1376C19.4866 13.1872 19.4866 10.206 19.1401 7.26335ZM14.2416 8.24938C14.4342 8.05679 14.7192 7.93354 14.9964 7.93354C15.2352 7.93354 15.5433 8.04139 15.7589 8.24938C15.9361 8.42656 16.0747 8.69617 16.0747 9.01201C16.0747 9.2123 16.0208 9.50503 15.7666 9.76694C15.5202 10.0134 15.2352 10.0828 15.0041 10.0828C14.6883 10.0828 14.4265 9.95182 14.2416 9.76694C14.0414 9.56665 13.9336 9.28933 13.9336 9.01201C13.9336 8.73469 14.0491 8.44967 14.2493 8.24938H14.2416ZM14.465 15.4597L13.5793 13.8189H9.80533L8.93501 15.4597H6.47809L10.614 7.94895H12.786L16.9219 15.4674H14.465V15.4597Z" fill="#CA60FF"/>
</svg>
