<svg width="24" height="24" viewBox="0 0 24 24" fill="none" xmlns="http://www.w3.org/2000/svg">
<path fill-rule="evenodd" clip-rule="evenodd" d="M18.498 6.40351C18.48 5.07602 17.37 4 16.002 4H8.004C6.636 4 5.526 5.07018 5.508 6.40351C4.086 6.63743 3 7.83041 3 9.2807V17.076C3 18.6901 4.344 20 6 20H18C19.656 20 21 18.6901 21 17.076V9.2807C21 7.83041 19.914 6.63743 18.498 6.40351ZM20.004 17.076C20.004 18.152 19.11 19.0234 18.006 19.0234H6C4.896 19.0234 4.002 18.152 4.002 17.076V9.2807C4.002 8.20468 4.896 7.33333 6 7.33333H18C19.104 7.33333 19.998 8.20468 19.998 9.2807V17.076H20.004Z" fill="#CA60FF"/>
<path d="M11.334 17.076H12.216V12.9942H13.734V12.269H9.81599V12.9942H11.334V17.076Z" fill="#CA60FF"/>
<path d="M16.146 17.1929C17.328 17.1929 18.072 16.6082 18.072 15.6725C18.072 14.9415 17.64 14.538 16.596 14.3216L16.068 14.2105C15.45 14.0818 15.204 13.8713 15.204 13.5321C15.204 13.1169 15.594 12.8713 16.14 12.8713C16.704 12.8713 17.07 13.1345 17.13 13.5087V13.5497H17.982V13.5087C17.916 12.7368 17.238 12.152 16.146 12.152C15.054 12.152 14.322 12.731 14.322 13.5906C14.322 14.3099 14.76 14.7719 15.768 14.9766L16.296 15.0818C16.932 15.2163 17.19 15.4269 17.19 15.7719C17.19 16.1871 16.776 16.4736 16.176 16.4736C15.552 16.4736 15.108 16.2046 15.066 15.807V15.7719H14.208V15.8187C14.274 16.6491 15 17.1988 16.146 17.1988V17.1929Z" fill="#CA60FF"/>
</svg>
